<svg xmlns="http://www.w3.org/2000/svg" version="1.1" xmlns:xlink="http://www.w3.org/1999/xlink" xmlns:svgjs="http://svgjs.com/svgjs" width="800" height="500" preserveAspectRatio="none" viewBox="0 0 800 500"><g mask="url(&quot;#SvgjsMask14419&quot;)" fill="none"><rect width="800" height="500" x="0" y="0" fill="rgba(235, 235, 235, 1)"></rect><rect width="193.28" height="193.28" clip-path="url(&quot;#SvgjsClipPath14420&quot;)" x="142.81" y="30.15" fill="url(#SvgjsPattern14421)" transform="rotate(112.26, 239.45, 126.79)"></rect><path d="M591.91 82.96 L545.4499999999999 133.7L527.9159613206704 67.56596132067037z" stroke="#037b0b" stroke-width="2.07" stroke-dasharray="4, 4"></path><path d="M220.77 34.82L228.25 24.43 240.03 29.45 247.51 19.06 259.3 24.08 266.78 13.69 278.56 18.71M222.91 42.53L230.4 32.14 242.18 37.16 249.66 26.77 261.44 31.79 268.93 21.39 280.71 26.41M225.06 50.23L232.55 39.84 244.33 44.86 251.81 34.47 263.59 39.49 271.08 29.1 282.86 34.12" stroke="#e73635" stroke-width="1.17" stroke-dasharray="3, 3"></path><circle r="41.666666666666664" cx="661.05" cy="3.01" fill="#e73635"></circle><rect width="240" height="240" clip-path="url(&quot;#SvgjsClipPath14422&quot;)" x="234.64" y="86.63" fill="url(#SvgjsPattern14423)" transform="rotate(146.87, 354.64, 206.63)"></rect><rect width="275.44" height="275.44" clip-path="url(&quot;#SvgjsClipPath14424&quot;)" x="184.26" y="317.5" fill="url(#SvgjsPattern14425)" transform="rotate(324.45, 321.98, 455.22)"></rect><path d="M226.87 215.95999999999998 L313.42 237.29L207.56449664730707 289.2055033526929z" fill="#d3b714"></path><rect width="203.28" height="203.28" clip-path="url(&quot;#SvgjsClipPath14426&quot;)" x="488.51" y="245.21" fill="url(#SvgjsPattern14427)" transform="rotate(58.25, 590.15, 346.85)"></rect></g><defs><mask id="SvgjsMask14419"><rect width="800" height="500" fill="#ffffff"></rect></mask><pattern x="0" y="0" width="12.08" height="12.08" patternUnits="userSpaceOnUse" id="SvgjsPattern14421"><path d="M6.04 1L6.04 11.08M1 6.04L11.08 6.04" stroke="#e73635" fill="none" stroke-width="2.68"></path></pattern><clipPath id="SvgjsClipPath14420"><circle r="48.32" cx="239.45" cy="126.79"></circle></clipPath><pattern x="0" y="0" width="6" height="6" patternUnits="userSpaceOnUse" id="SvgjsPattern14423"><path d="M3 1L3 5M1 3L5 3" stroke="#e73635" fill="none" stroke-width="1.49"></path></pattern><clipPath id="SvgjsClipPath14422"><circle r="60" cx="354.64" cy="206.63"></circle></clipPath><pattern x="0" y="0" width="12.52" height="12.52" patternUnits="userSpaceOnUse" id="SvgjsPattern14425"><path d="M0 12.52L6.26 0L12.52 12.52" stroke="#d3b714" fill="none"></path></pattern><clipPath id="SvgjsClipPath14424"><circle r="68.86" cx="321.98" cy="455.22"></circle></clipPath><pattern x="0" y="0" width="203.28" height="7.26" patternUnits="userSpaceOnUse" id="SvgjsPattern14427"><rect width="203.28" height="3.63" x="0" y="0" fill="#e73635"></rect><rect width="203.28" height="3.63" x="0" y="3.63" fill="rgba(0, 0, 0, 0)"></rect></pattern><clipPath id="SvgjsClipPath14426"><circle r="50.82" cx="590.15" cy="346.85"></circle></clipPath></defs></svg>